<svg xmlns="http://www.w3.org/2000/svg" id="Capa_1" data-name="Capa 1" viewBox="0 0 200 100"><defs><style>.cls-1,.cls-10,.cls-3,.cls-6,.cls-8{fill:#fff;}.cls-2{fill:#14324d;}.cls-3{fill-rule:evenodd;}.cls-11,.cls-14,.cls-4,.cls-5{fill:#00324b;}.cls-11,.cls-14,.cls-5{stroke:#fff;stroke-miterlimit:10;}.cls-5{stroke-width:1.2px;}.cls-6{fill-opacity:0.1;}.cls-7{fill:#eaeaea;}.cls-8{opacity:0.15;}.cls-13,.cls-9{fill:#002b49;}.cls-10{opacity:0.2;}.cls-11{stroke-width:0.96px;}.cls-12{fill:#4c627a;}.cls-13{opacity:0.6;}.cls-14{stroke-width:1.35px;}</style></defs><title>email-icono-cta-boletin-logos</title><rect class="cls-1" x="67.27" y="17.2" width="65.47" height="50.81"/><path id="email-2" class="cls-2" d="M68.24,18.18V67h63.51V18.18H68.24ZM85.77,39.7L73.54,55.21V29.54Zm-11-16.09h50.37L100,44.54ZM89.88,43.12L100,51.53l10.14-8.42L125,61.61H75.29Zm24.37-3.43,12.21-10.15V54.91Z"/><path class="cls-3" d="M35.29,71.83c-4.28,0-7.58-1.32-9.8-3.92a12.48,12.48,0,0,1-2.67-9.3L23,57.69h2.5v-4h4.35v-4h8.7v-4h5.23v8h4.35v4a5.23,5.23,0,0,0,1.35-.21,5.85,5.85,0,0,1-.38-1.55,6.78,6.78,0,0,1,1-4.21l1-1.41,1.42,0.94a6.45,6.45,0,0,1,2.46,3.3c0.24,0,.49,0,0.75,0a6.08,6.08,0,0,1,3.14.71l1.31,0.86L59.7,57c-0.25.51-.34,0.68-0.37,0.74-1,1.85-2.75,2.83-5.24,2.87C50.84,67.84,44.19,71.83,35.29,71.83Z"/><path class="cls-4" d="M43,46.54v3.31H39.31V46.54H43m0,4v3.31H39.31V50.51H43m-4.35,0v3.31H35V50.51h3.68m-4.35,0v3.31H30.61V50.51h3.68m17,0.87L52,51.89a5.33,5.33,0,0,1,2.29,3.51,7.48,7.48,0,0,1,1.35-.12,5.46,5.46,0,0,1,2.72.58l0.74,0.49L59,56.62c-0.23.47-.31,0.62-0.34,0.68a5,5,0,0,1-4.76,2.5H53.58c-3,7.27-9.52,11.26-18.28,11.26-4,0-7.14-1.23-9.21-3.65a11.63,11.63,0,0,1-2.5-8.66l0-.28H48a5.62,5.62,0,0,0,2.57-.59,4.66,4.66,0,0,1-.69-2,6,6,0,0,1,.89-3.7l0.52-.77m-3.92,3.11V57.8H43.65V54.49h3.68m-4.35,0V57.8H39.31V54.49H43m-4.35,0V57.8H35V54.49h3.68m-4.35,0V57.8H30.61V54.49h3.68m-4.35,0V57.8H26.26V54.49h3.68M44.53,45H37.76v4h-8.7v4H24.71v4H22.34L22.11,58.2l0,0.28a13.08,13.08,0,0,0,2.84,9.93c2.37,2.78,5.87,4.19,10.38,4.19,9,0,15.85-4,19.3-11.28A6.17,6.17,0,0,0,60,58.05c0.05-.09.14-0.25,0.38-0.76L60.52,57l0.59-1.22L60,55.07l-0.74-.49a7.09,7.09,0,0,0-3.57-.84H55.46A7.53,7.53,0,0,0,53,50.67l0,0,0,0-0.78-.52-1.28-.84L50,50.51l-0.52.77a6.74,6.74,0,0,0-.8,1.65H44.53V45h0Z"/><path class="cls-1" d="M164,59.2c1.79,2.06-.47,3.92-0.47,3.92s4.55-2.35,2.46-5.29c-2-2.75-3.45-4.11,4.66-8.81,0,0-12.73,3.18-6.65,10.19"/><path class="cls-1" d="M166,41.42s3.86,3.86-3.67,9.81c-6,4.77-1.38,7.49,0,10.59-3.52-3.18-6.11-6-4.37-8.58,2.54-3.82,9.6-5.67,8-11.81"/><path class="cls-1" d="M157.36,70.18s-1.42.82,1,1.1a21.27,21.27,0,0,0,7.7-.33,13.34,13.34,0,0,0,2,1c-7.28,3.12-16.48-.18-10.76-1.77"/><path class="cls-1" d="M156.47,66.11s-1.6,1.18.84,1.43a30.08,30.08,0,0,0,9.93-.48,4.39,4.39,0,0,0,1.53.93c-8.8,2.57-18.6.2-12.3-1.89"/><path class="cls-1" d="M173.6,73.19s1.05,0.87-1.16,1.54c-4.2,1.27-17.49,1.66-21.18.05-1.33-.58,1.16-1.38,1.94-1.55a5.18,5.18,0,0,1,1.28-.15c-1.48-1-9.54,2-4.09,2.92,14.84,2.41,27.05-1.08,23.2-2.82"/><path class="cls-1" d="M158,61.89s-6.76,1.6-2.39,2.19a51,51,0,0,0,8.94-.1c2.8-.24,5.61-0.74,5.61-0.74a11.87,11.87,0,0,0-1.7.91c-6.86,1.81-20.12,1-16.3-.88A12.79,12.79,0,0,1,158,61.89"/><path class="cls-1" d="M170.17,68.66c7-3.62,3.75-7.11,1.5-6.64a5.46,5.46,0,0,0-.8.21,1.27,1.27,0,0,1,.6-0.46c4.45-1.57,7.88,4.62-1.44,7.07a0.62,0.62,0,0,0,.14-0.18"/><path class="cls-1" d="M158.73,78.49c6.7,0.43,17-.24,17.22-3.41,0,0-.47,1.2-5.53,2.16a55.05,55.05,0,0,1-16.95.26s0.86,0.71,5.26,1"/><g id="layer1"><g id="g3013"><polygon id="polygon2989" class="cls-5" points="163.14 59.89 160.95 84.39 151.12 87.12 141.31 84.4 139.13 59.89 163.14 59.89"/><polygon id="polygon2991" class="cls-6" points="159.08 82.83 160.95 61.89 151.13 61.89 151.13 85.03 159.08 82.83"/><polygon id="polygon2993" class="cls-7" points="144.14 70.98 144.41 73.99 151.13 73.99 151.13 70.98 144.14 70.98"/><polygon id="polygon2995" class="cls-7" points="151.13 64.9 151.12 64.9 143.6 64.9 143.87 67.9 151.13 67.9 151.13 64.9"/><polygon id="polygon2997" class="cls-7" points="151.13 81.92 151.13 78.79 151.12 78.79 147.77 77.89 147.56 75.49 145.93 75.49 144.54 75.49 144.96 80.21 151.12 81.92 151.13 81.92"/><polygon id="polygon3005" class="cls-1" points="154.82 73.99 154.48 77.89 151.12 78.79 151.12 81.92 157.29 80.21 157.33 79.7 158.04 71.79 158.11 70.98 158.65 64.9 151.12 64.9 151.12 67.9 155.36 67.9 155.09 70.98 151.12 70.98 151.12 73.99 154.82 73.99"/></g></g><path class="cls-4" d="M36.34,89.47c-6.14,0-10.27-1.88-10.27-3.58V65.55H46.9V85.89c0,1.73-4.19,3.58-10.42,3.58H36.34Z"/><path class="cls-1" d="M46.6,65.85v20c0,1.55-4.33,3.28-10.12,3.28v0.6l-0.06-.6H36.34c-5.88,0-10-1.75-10-3.28v-20H46.6m0.6-.6H25.77V85.89c0,2.13,4.72,3.85,10.57,3.88h0.15c5.92,0,10.72-1.74,10.72-3.88V65.25h0Z"/><path class="cls-8" d="M36.1,89.77h0.15c5.89,0,10.66-1.74,10.66-3.88V65.25H36.1V89.77Z"/><path class="cls-1" d="M47.2,65.25c0,2.14-4.8,3.88-10.72,3.88s-10.72-1.74-10.72-3.88,4.8-3.88,10.72-3.88S47.2,63.1,47.2,65.25"/><path class="cls-9" d="M45,65c0,1.42-3.82,2.56-8.53,2.56S28,66.44,28,65s3.82-2.56,8.53-2.56S45,63.61,45,65"/><path class="cls-10" d="M45,65c0,1.42-3.82,2.56-8.53,2.56S28,66.44,28,65s3.82-2.56,8.53-2.56S45,63.61,45,65"/><path class="cls-9" d="M43.23,66.59c1.12-.43,1.79-1,1.79-1.56,0-1.42-3.82-2.56-8.53-2.56S28,63.61,28,65c0,0.59.67,1.13,1.79,1.56a19.91,19.91,0,0,1,6.74-1,19.91,19.91,0,0,1,6.74,1"/><path class="cls-1" d="M33.08,79.58a1.76,1.76,0,0,1-.7,1.49,3.13,3.13,0,0,1-1.93.53,3.67,3.67,0,0,1-1.75-.38V79.71a2.7,2.7,0,0,0,1.79.69,1.22,1.22,0,0,0,.73-0.19,0.59,0.59,0,0,0,.26-0.5,0.7,0.7,0,0,0-.25-0.53,4.55,4.55,0,0,0-1-.58,2.22,2.22,0,0,1-1.55-2,1.79,1.79,0,0,1,.67-1.46,2.75,2.75,0,0,1,1.79-.55,4.48,4.48,0,0,1,1.64.26v1.41a2.68,2.68,0,0,0-1.56-.47,1.15,1.15,0,0,0-.69.19,0.59,0.59,0,0,0-.25.5,0.71,0.71,0,0,0,.21.53,3.32,3.32,0,0,0,.84.51,4.17,4.17,0,0,1,1.35.91A1.7,1.7,0,0,1,33.08,79.58Z"/><path class="cls-1" d="M38.76,78.14a2.65,2.65,0,0,0-.45-1.62,1.45,1.45,0,0,0-1.23-.6,1.54,1.54,0,0,0-1.27.6,2.91,2.91,0,0,0,0,3.18,1.5,1.5,0,0,0,1.24.59,1.52,1.52,0,0,0,1.25-.57A2.43,2.43,0,0,0,38.76,78.14Zm1.6-.09a3.86,3.86,0,0,1-.54,2.07,2.9,2.9,0,0,1-1.53,1.23l2,1.82h-2l-1.4-1.57a3.28,3.28,0,0,1-1.62-.48,3,3,0,0,1-1.12-1.21,3.73,3.73,0,0,1-.39-1.72,4,4,0,0,1,.43-1.87A3,3,0,0,1,35.36,75a3.51,3.51,0,0,1,1.77-.44A3.26,3.26,0,0,1,38.8,75,2.93,2.93,0,0,1,40,76.25,3.86,3.86,0,0,1,40.36,78.05Z"/><polygon class="cls-1" points="45.5 81.48 41.48 81.48 41.48 74.72 43 74.72 43 80.24 45.5 80.24 45.5 81.48"/><path class="cls-11" d="M74.15,76.84c0-2.18,0-4.36,0-6.53a2.93,2.93,0,0,0-1.63-2.81Q66.89,64.27,61.27,61A3,3,0,0,0,58,61q-5.67,3.3-11.36,6.55A2.86,2.86,0,0,0,45,70.18q0,6.64,0,13.29a2.93,2.93,0,0,0,1.6,2.73c3.77,2.14,7.52,4.31,11.27,6.49a3.1,3.1,0,0,0,3.36,0q5.62-3.27,11.27-6.49a2.93,2.93,0,0,0,1.61-2.82C74.13,81.2,74.15,79,74.15,76.84Z"/><path class="cls-1" d="M68.09,72l-4.3,2.48a4.78,4.78,0,1,0,0,4.67L68,81.58a9.67,9.67,0,0,1-9.19,5A9.77,9.77,0,1,1,68.09,72Z"/><polygon class="cls-1" points="68.27 79.02 67.46 79.02 68.24 73.67 69.05 73.67 68.27 79.02"/><polygon class="cls-1" points="70.37 79.02 69.56 79.02 70.35 73.67 71.16 73.67 70.37 79.02"/><polygon class="cls-1" points="66.75 76.94 66.62 77.74 71.5 77.75 71.63 76.94 66.75 76.94"/><polygon class="cls-1" points="67.1 74.86 66.97 75.66 71.84 75.67 71.97 74.87 67.1 74.86"/><path class="cls-5" d="M125,88.88L122.8,64.37h24l-2.18,24.5-9.84,2.73Z"/><path class="cls-6" d="M134.81,89.51V66.38h9.81l-1.87,20.91"/><path class="cls-7" d="M127.26,69.38h7.54v3h-4.25l0.28,3.08h4v3h-6.72M128.22,80h3l0.21,2.4,3.36,0.9V86.4l-6.17-1.72"/><path class="cls-1" d="M142.33,69.38H134.8v3H142m-0.27,3.08h-7v3h3.71l-0.35,3.9-3.36.9v3.12l6.15-1.71"/><polygon class="cls-1" points="73.03 88.39 70.8 69.02 85.57 63.75 100.34 69.02 98.1 88.39 85.57 95.34 73.03 88.39"/><path class="cls-1" d="M85.57,65L99.1,69.78,97,87.68,85.57,94,74.09,87.68,72,69.78,85.57,65m0-2.42-0.76.27L71.26,67.64l-1.7.61L69.77,70l2.06,17.9L72,89.11l1,0.57L84.46,96l1.1,0.61,1.1-.61,11.47-6.35,1-.57,0.13-1.16L101.36,70l0.21-1.8-1.7-.61L86.33,62.81l-0.76-.27h0Z"/><polygon class="cls-12" points="85.57 64.95 85.57 64.95 85.57 64.95 72.03 69.78 74.09 87.68 85.57 94.04 85.57 94.04 85.57 94.04 97.04 87.68 99.1 69.78 85.57 64.95"/><polygon class="cls-13" points="85.57 64.95 85.57 68.18 85.57 68.17 85.57 82.9 85.57 82.9 85.57 94.04 85.57 94.04 97.04 87.68 99.1 69.78 85.57 64.95"/><path class="cls-1" d="M85.57,68.17l-8.46,19h3.16L82,82.9h7.18l1.7,4.25H94l-8.43-19h0ZM88,80.28H83.09l2.47-5.95Z"/><rect class="cls-14" x="96.19" y="66.85" width="27.99" height="27.99"/><path class="cls-1" d="M109.41,91.22a4.24,4.24,0,0,1-1.15-.14V89.46a3.81,3.81,0,0,0,.92.13,1,1,0,0,0,.92-0.4,2.22,2.22,0,0,0,.28-1.25V79.35h1.94v8.58a3.61,3.61,0,0,1-.73,2.45A2.73,2.73,0,0,1,109.41,91.22Z"/><path class="cls-1" d="M119.91,86a2.37,2.37,0,0,1-.89,2,3.88,3.88,0,0,1-2.49.71,5.84,5.84,0,0,1-2.6-.55V86.29a10.65,10.65,0,0,0,1.57.58,4.66,4.66,0,0,0,1.18.17,1.67,1.67,0,0,0,1-.24,0.84,0.84,0,0,0,.34-0.73,0.8,0.8,0,0,0-.15-0.48,1.67,1.67,0,0,0-.44-0.4,11.49,11.49,0,0,0-1.19-.62,5.62,5.62,0,0,1-1.26-.76,2.83,2.83,0,0,1-.67-0.85,2.41,2.41,0,0,1-.25-1.13,2.37,2.37,0,0,1,.82-1.91,3.43,3.43,0,0,1,2.28-.7,5.39,5.39,0,0,1,1.36.17,9.41,9.41,0,0,1,1.36.48l-0.63,1.51A9.17,9.17,0,0,0,118,81a3.9,3.9,0,0,0-.94-0.12,1.25,1.25,0,0,0-.85.26,0.85,0.85,0,0,0-.29.67,0.82,0.82,0,0,0,.12.45,1.31,1.31,0,0,0,.38.37,11.86,11.86,0,0,0,1.23.64,4.91,4.91,0,0,1,1.76,1.23A2.41,2.41,0,0,1,119.91,86Z"/></svg>